<?xml version="1.0" standalone="no"?>
<!DOCTYPE svg PUBLIC "-//W3C//DTD SVG 20010904//EN"
 "http://www.w3.org/TR/2001/REC-SVG-20010904/DTD/svg10.dtd">
<svg version="1.0" xmlns="http://www.w3.org/2000/svg"
 width="225.000000pt" height="225.000000pt" viewBox="0 0 225.000000 225.000000"
 preserveAspectRatio="xMidYMid meet">
<metadata>
Created by potrace 1.16, written by Peter Selinger 2001-2019
</metadata>
<g transform="translate(0.000000,225.000000) scale(0.100000,-0.100000)"
fill="#000000" stroke="none">
<path d="M148 1851 l-33 -29 0 -120 c0 -181 20 -202 194 -202 l101 0 0 -133 0
-133 -30 -17 c-34 -21 -56 -80 -46 -123 4 -15 23 -42 42 -60 l34 -33 0 -124 0
-125 -112 -4 c-164 -5 -180 -20 -186 -169 -5 -110 7 -159 45 -189 24 -19 40
-20 285 -20 l260 0 29 29 c29 29 29 30 29 155 0 125 0 126 -29 158 -29 33 -29
33 -140 36 l-111 4 0 133 c0 110 3 134 15 139 9 3 25 21 36 41 l21 35 574 0
573 0 16 -30 c8 -16 24 -34 35 -40 18 -10 20 -21 20 -145 l0 -135 -90 0 c-169
0 -190 -22 -190 -198 0 -123 0 -124 29 -153 l29 -29 261 0 261 0 32 29 33 29
0 120 c0 180 -13 194 -177 200 l-108 4 0 129 0 130 34 30 c19 16 37 43 41 58
8 39 -18 98 -49 113 l-26 11 0 137 0 138 108 4 c157 6 174 21 180 169 5 110
-7 159 -45 189 -24 19 -40 20 -285 20 l-260 0 -29 -29 c-29 -29 -29 -30 -29
-155 0 -125 0 -126 29 -158 29 -33 29 -33 140 -36 l111 -4 0 -127 0 -128 -40
-41 -39 -42 -566 0 -565 0 -40 40 -40 40 0 135 0 135 111 0 c109 0 111 0 140
29 29 29 29 29 29 156 0 127 0 127 -29 156 l-29 29 -261 0 -261 0 -32 -29z
m530 -63 c18 -18 16 -192 -2 -207 -9 -8 -83 -11 -247 -9 l-234 3 -3 99 c-1 55
0 106 2 113 7 18 466 19 484 1z m1377 -103 l0 -110 -234 -3 c-164 -2 -238 1
-247 9 -18 15 -20 189 -2 207 9 9 73 12 248 10 l235 -3 0 -110z m-1371 -1031
c11 -29 7 -189 -6 -202 -13 -13 -441 -18 -472 -6 -13 5 -16 24 -16 108 0 57 3
106 7 109 3 4 113 7 244 7 207 0 238 -2 243 -16z m1374 -93 c2 -77 -1 -107
-10 -113 -22 -13 -462 -10 -476 4 -16 16 -16 190 0 206 9 9 73 12 248 10 l235
-3 3 -104z"/>
</g>
</svg>
