<?xml version="1.0" encoding="iso-8859-1"?>
<!-- Generator: Adobe Illustrator 19.0.0, SVG Export Plug-In . SVG Version: 6.00 Build 0)  -->
<svg version="1.1" id="Capa_1" xmlns="http://www.w3.org/2000/svg" xmlns:xlink="http://www.w3.org/1999/xlink" x="0px" y="0px"
	 viewBox="0 0 512 512" style="enable-background:new 0 0 512 512;" xml:space="preserve">
<g>
	<g>
		<g>
			<rect x="192" y="277.333" width="128" height="85.333"/>
			<path d="M426.667,0h-160c-2.833,0-5.542,1.125-7.542,3.125l-77.792,77.792L164.417,64l3.125-3.125
				c4.167-4.167,4.167-10.917,0-15.083L124.875,3.125c-4.167-4.167-10.917-4.167-15.083,0l-64,64
				c-4.167,4.167-4.167,10.917,0,15.083l42.667,42.667C90.542,126.958,93.271,128,96,128s5.458-1.042,7.542-3.125l3.125-3.125
				l16.917,16.917l-77.792,77.792c-2,2-3.125,4.708-3.125,7.542v245.333c0,23.531,19.135,42.667,42.667,42.667h341.333
				c23.531,0,42.667-19.135,42.667-42.667V42.667C469.333,19.135,450.198,0,426.667,0z M380.875,408.458
				c4.167,4.167,4.167,10.917,0,15.083c-2.083,2.083-4.813,3.125-7.542,3.125c-2.729,0-5.458-1.042-7.542-3.125L326.25,384h-140.5
				l-39.542,39.542c-2.083,2.083-4.813,3.125-7.542,3.125c-2.729,0-5.458-1.042-7.542-3.125c-4.167-4.167-4.167-10.917,0-15.083
				l39.542-39.542v-97.833l-39.542-39.542c-4.167-4.167-4.167-10.917,0-15.083c4.167-4.167,10.917-4.167,15.083,0L185.75,256h140.5
				l39.542-39.542c4.167-4.167,10.917-4.167,15.083,0c4.167,4.167,4.167,10.917,0,15.083l-39.542,39.542v97.833L380.875,408.458z
				 M384,128H224c-4.313,0-8.208-2.594-9.854-6.583c-1.656-3.99-0.74-8.573,2.313-11.625l64-64c2-2,4.708-3.125,7.542-3.125h96
				c23.531,0,42.667,19.135,42.667,42.667S407.531,128,384,128z"/>
		</g>
	</g>
</g>
<g>
</g>
<g>
</g>
<g>
</g>
<g>
</g>
<g>
</g>
<g>
</g>
<g>
</g>
<g>
</g>
<g>
</g>
<g>
</g>
<g>
</g>
<g>
</g>
<g>
</g>
<g>
</g>
<g>
</g>
</svg>
